<svg id="Layer_1" data-name="Layer 1" xmlns="http://www.w3.org/2000/svg" viewBox="0 0 400 400"><defs><style>.cls-1{fill:#fff;}.cls-2{fill:#fc8019;}</style></defs><rect class="cls-1" x="-75.34" y="-3193.95" width="2777.89" height="4120.23"/><path class="cls-2" d="M81.14,247.09a.85.85,0,0,1-.17-.16,227,227,0,0,1-14-19.75c-2-3.3-3.24-5.89-3-6.56.64-1.73,12.07-2.68,15.6-1.11,1.07.47,1,1.1,1,1.47,0,1.59-.08,5.84-.08,5.84a1.59,1.59,0,1,0,3.18,0V216.19c0-.92-1-1.15-1.19-1.18-1.84,0-5.56,0-9.58,0-8.84,0-10.81.37-12.32-.61-3.26-2.12-8.58-16.51-8.71-24.6a29.25,29.25,0,0,1,58.33-3.31v0c.3,3.54-19.16,4.3-23,3.27a1.05,1.05,0,0,1-.74-1c0-2.7,0-10.27,0-10.27a1.6,1.6,0,0,0-3.19,0l0,14a1.16,1.16,0,0,0,1,1.15H96.32c6.44,0,9.15.75,10.94,2.13,1.2.91,1.66,2.67,1.26,4.95C104.91,220.92,82,246,81.14,247.09Zm62.09-47.31c5.78,2.48,9.36,5.23,9.36,11.29s-4.67,10.16-11.89,10.16c-5.85,0-10.54-2.66-12.88-7.29l-.38-.75,6.88-4,.45.74c1.54,2.54,3.28,3.62,5.79,3.62,2.16,0,3.62-1,3.62-2.4,0-1.59-1.05-2.18-4.31-3.61l-1.65-.71c-4.41-1.89-8.5-4.51-8.5-10.86,0-5.71,4.36-9.69,10.6-9.69,4.73,0,8,1.84,10.21,5.78l.42.74-6.66,4.29-.46-.82c-1.12-2-2.16-2.39-3.49-2.39s-2.29.77-2.29,2c0,1.37.66,2,3.54,3.23Zm48.69,1.16,4.86-13.58h8.33l-12.35,34.43h-1.85l-7.49-16.13c-.34-.73-.71-1.65-1-2.49-.32.84-.69,1.76-1,2.51l-7.79,16.12h-1.84l-12.55-34.43h8.9L173,201c.3.87.63,1.92.91,2.9a28,28,0,0,1,1.15-3l6.45-13.78h1.78l6.54,13.78a26,26,0,0,1,1.15,3c.3-1,.63-2,.94-2.91Zm22.9,19.86V186.66h8.41V220.8Zm36-11.48v-7.63h15.62V217l-.33.26a21.53,21.53,0,0,1-12.94,4c-10.82,0-18.37-7.2-18.37-17.5,0-10.12,7.29-17.45,17.34-17.45,5.52,0,9.58,1.56,12.38,4.77l.55.63-5.73,5.7-.62-.64a8.08,8.08,0,0,0-6.57-2.69c-5.14,0-8.73,4-8.73,9.68,0,5.93,3.83,9.77,9.78,9.77a16.13,16.13,0,0,0,5.42-.89v-3.29Zm42.62,0v-7.63H309V217l-.32.26a21.56,21.56,0,0,1-12.94,4c-10.82,0-18.37-7.2-18.37-17.5,0-10.12,7.29-17.45,17.33-17.45,5.53,0,9.58,1.56,12.38,4.77l.55.63-5.74,5.7-.63-.64a8.06,8.06,0,0,0-6.57-2.69c-5.14,0-8.74,4-8.74,9.68,0,5.93,3.83,9.77,9.78,9.77a16.2,16.2,0,0,0,5.43-.89v-3.29Zm46.45-22.66h8.78l-12.06,22.72V220.8h-8.45V209.87l-12.86-23.2h9.38l5.93,10.89a39.45,39.45,0,0,1,1.82,4,39.62,39.62,0,0,1,1.76-4Z"/></svg>