<svg id="Layer_1" data-name="Layer 1" xmlns="http://www.w3.org/2000/svg" viewBox="0 0 400 400"><defs><style>.cls-1{fill:#fff;}.cls-2{fill:#2f4254;}</style></defs><rect class="cls-1" x="-955.34" y="-546.79" width="2777.89" height="4120.23"/><path class="cls-2" d="M153.78,234.71a14.38,14.38,0,0,0,24.6-10.19v-58H193v58.08a28.38,28.38,0,0,1-8.5,20.57A28.91,28.91,0,0,1,164,253.59a28.14,28.14,0,0,1-20.57-8.43l10.38-10.45Z"/><polygon class="cls-2" points="222.89 166.51 237.3 166.51 237.3 253.53 222.89 253.53 222.89 166.51"/><path class="cls-2" d="M326.33,230.62A28.24,28.24,0,0,1,305.89,239,28.58,28.58,0,0,1,277,210.05a28.94,28.94,0,0,1,57.88,0,28.51,28.51,0,0,1-8.5,20.57Zm10.25-51.33a43.48,43.48,0,0,0-74.17,30.76,43.4,43.4,0,0,0,74.17,30.69,41.11,41.11,0,0,0,12.91-30.69,41.69,41.69,0,0,0-12.91-30.76Z"/><path class="cls-2" d="M80.2,224.52h25.57L93,199,80.2,224.52ZM113,239H73l-7.4,14.54H49.44L93,166.44l43.54,87.09H120.37L113,239Z"/></svg>