<svg id="Layer_1" data-name="Layer 1" xmlns="http://www.w3.org/2000/svg" xmlns:xlink="http://www.w3.org/1999/xlink" viewBox="0 0 400 400"><defs><style>.cls-1{fill:#fff;}.cls-2{fill:#662677;}.cls-3{fill:url(#radial-gradient);}.cls-4{fill:url(#radial-gradient-2);}.cls-5{fill:#361749;}.cls-6{fill:#874091;}</style><radialGradient id="radial-gradient" cx="-540.56" cy="-1451.74" r="1.78" gradientTransform="matrix(0, 24.62, 31.62, 0, 45991.15, 13448.03)" gradientUnits="userSpaceOnUse"><stop offset="0.82" stop-color="#874091"/><stop offset="0.89" stop-color="#662677"/></radialGradient><radialGradient id="radial-gradient-2" cx="-767.76" cy="-1638.44" r="1.78" gradientTransform="matrix(0, -24.62, -31.57, 0, -35988.2, -12250.11)" gradientUnits="userSpaceOnUse"><stop offset="0.82" stop-color="#461d5c"/><stop offset="0.89" stop-color="#662677"/></radialGradient></defs><rect class="cls-1" x="-1395.34" y="-2746.79" width="2777.89" height="4120.23"/><g id="Group_579" data-name="Group 579"><g id="Group_576" data-name="Group 576"><g id="Group_575" data-name="Group 575"><path id="Rectangle_382" data-name="Rectangle 382" class="cls-2" d="M57.47,163h57.2a7.17,7.17,0,0,1,7.13,7.13v57.21a7.17,7.17,0,0,1-7.13,7.13H57.47a7.17,7.17,0,0,1-7.13-7.13V170.11A7.41,7.41,0,0,1,57.47,163Z"/><path id="Path_1353" data-name="Path 1353" class="cls-3" d="M114.84,163a7,7,0,0,1,7,7v23.43a4.12,4.12,0,0,1-4.07,4.07H54.58a4.12,4.12,0,0,1-4.07-4.07h0V169.94a7,7,0,0,1,7-7h57.37Z"/><path id="Path_1354" data-name="Path 1354" class="cls-4" d="M57.47,234.28a7,7,0,0,1-7-7h0V204.06A4.13,4.13,0,0,1,54.58,200h63a4.13,4.13,0,0,1,4.07,4.07h0v23.43a7,7,0,0,1-7,7H57.47Z"/><path id="Rectangle_383" data-name="Rectangle 383" class="cls-2" d="M57.3,165.19h57.54a4.57,4.57,0,0,1,4.59,4.58v57.55a4.56,4.56,0,0,1-4.59,4.58H57.3a4.56,4.56,0,0,1-4.59-4.58V169.77A4.57,4.57,0,0,1,57.3,165.19Z"/></g><path id="Path_1355" data-name="Path 1355" class="cls-5" d="M96.68,217l-13.92,3.9A2.18,2.18,0,0,1,80,219.34L69.52,183a2.18,2.18,0,0,1,1.53-2.71h0l14.26-4.08a8.83,8.83,0,0,1,9.16,2.55,9.88,9.88,0,0,1-.17,13.92h0L94,193A12.29,12.29,0,0,1,96.68,217Z"/><path id="Path_1356" data-name="Path 1356" class="cls-1" d="M98.72,191.5a12.32,12.32,0,0,0-14.09-17.65l-14.77,4.24a4.36,4.36,0,0,0-3.06,5.43h0L77.67,220.7a4.36,4.36,0,0,0,5.43,3.06h0l14.77-4.25a15.51,15.51,0,0,0,10.18-11.88A15,15,0,0,0,98.72,191.5Zm-2,25.47L82.76,221A2.18,2.18,0,0,1,80,219.51L69.52,183.18a2.18,2.18,0,0,1,1.53-2.71h0l14.43-4.08a8.92,8.92,0,0,1,9.16,2.55,9.88,9.88,0,0,1-.17,13.92h0l-.34.34a12.18,12.18,0,0,1,11.38,12.9A12.4,12.4,0,0,1,96.68,217Z"/><path id="Path_1357" data-name="Path 1357" class="cls-2" d="M100.92,207.29a11.15,11.15,0,0,0-11-11.2,9.63,9.63,0,0,0,1-13.42h0l-.17-.17a9,9,0,0,0-9-2.71l-12,3.39,10.52,36.33A2.18,2.18,0,0,0,82.93,221l9.84-2.89h.17a11.14,11.14,0,0,0,8-10.86Z"/></g><g id="Group_578" data-name="Group 578"><path id="Path_1358" data-name="Path 1358" class="cls-2" d="M276.79,224.43c-12.05,0-19-7.29-19-21.72V178.43c0-3.56,2-5.6,4.92-5.6s4.92,2,4.92,5.6V202c0,9.67,3.23,12.73,9.17,12.73S286,211.7,286,202v-23.6c0-3.56,2-5.6,4.92-5.6s4.92,2,4.92,5.6v24.45c0,14.43-7,21.55-19,21.55ZM166.45,197.1a13,13,0,0,0,6.28-10.69c0-8.49-5.94-14.43-18-14.43H141.16a4.58,4.58,0,0,0-4.93,4.24v43.63a4.71,4.71,0,0,0,4.42,4.92h.51l13.58.17c15.61.17,20.71-6.62,20.71-14.76a13.45,13.45,0,0,0-8.83-12.74c-.17,0-.17-.17-.17-.34Zm32.59-3-11-18.34a4.64,4.64,0,0,0-4.25-2.88,4.85,4.85,0,0,0-5.09,4.24v.34a6.92,6.92,0,0,0,1.36,4.08l14.09,22.74V219c0,3.57,2.21,5.6,4.92,5.6,2.89,0,4.93-2,4.93-5.6V203.89l14.08-22.74a6.92,6.92,0,0,0,1.36-4.08,4.61,4.61,0,0,0-4.92-4.41h-.17a5.06,5.06,0,0,0-4.41,2.88Zm107.29-3.23a3.69,3.69,0,0,0,3.39-2.37,32.92,32.92,0,0,0,2.55-10.53c0-3.22-1.53-5.26-5.09-5.26s-5.1,2.38-5.1,6.79v3.9c.17,4.93,1.53,7.64,4.25,7.47ZM215,211c0,4.76,4.07,13.58,15.62,13.58s17.14-6.79,17.14-18.84V178.6c0-3.56-2-5.6-4.92-5.6s-4.92,2-4.92,5.6v27.33c0,6.28-2,9.17-7,9.17-8.32.17-4.76-8.66-10.53-9.17a4.66,4.66,0,0,0-5.26,4.25,1.48,1.48,0,0,0-.17.84Zm-57.21-18.5c-3.22.68-5.26,1.87-5.26,4.92s2,4.76,5.26,5.27c5.6.68,7.47,2.54,7.47,6.79,0,3.9-3.22,5.94-9.34,5.94h-10V181H156.6a5.54,5.54,0,0,1,6.11,5.09v1.19C162.71,190.48,160.85,192,157.79,192.52Zm166.87,19a7,7,0,0,0-4.58-2.88,4.53,4.53,0,0,0-4.75,4.24v.51a6.9,6.9,0,0,0,1.86,4.41,20.78,20.78,0,0,0,16.64,7.47c9.17,0,17-5.26,17-14.43,0-18.16-24.1-16.29-24.1-24.44,0-3.06,2-4.92,5.6-4.92a9,9,0,0,1,6.45,2c1.7,1.36,3.23,4.08,6.11,4.08a4.36,4.36,0,0,0,4.59-4.08h0c0-3.56-3.57-7-6.62-8.65a21.33,21.33,0,0,0-10.7-2.72c-7.81.17-15.45,4.41-15.45,14.43,0,16.3,24.11,13.41,24.11,23.77,0,3.73-2.89,5.6-7.13,5.6a13.07,13.07,0,0,1-9-4.42Z"/><g id="Group_577" data-name="Group 577"><path id="Path_1359" data-name="Path 1359" class="cls-6" d="M262.7,173.68c2.89,0,4.92,2,4.92,5.6v-.85c0-3.56-2-5.6-4.92-5.6s-4.92,2-4.92,5.6v.85C257.78,175.88,259.81,173.68,262.7,173.68Z"/><path id="Path_1360" data-name="Path 1360" class="cls-6" d="M267.62,203.05c0,9.67,3.23,12.73,9.17,12.73s9.17-3.06,9.17-12.73v-1c0,9.67-3.23,12.73-9.17,12.73s-9.17-3.06-9.17-12.73Z"/><path id="Path_1361" data-name="Path 1361" class="cls-6" d="M327,186.75v.51c0,8,23.59,6.28,24.1,23.93v-.34C351,192.86,327.72,194.39,327,186.75Z"/><path id="Path_1362" data-name="Path 1362" class="cls-6" d="M183.76,173.68a5.07,5.07,0,0,1,4.42,2.88L199,194.9l11-18.34a4.92,4.92,0,0,1,9.33,1.19v-.51a4.61,4.61,0,0,0-4.92-4.41h-.17a5.06,5.06,0,0,0-4.41,2.88L199,194.05l-10.86-18.34a4.7,4.7,0,0,0-4.42-2.88,4.85,4.85,0,0,0-5.09,4.24v.85A4.72,4.72,0,0,1,183.76,173.68Z"/><path id="Path_1363" data-name="Path 1363" class="cls-6" d="M320.25,209.5a7,7,0,0,1,4.58,2.88,12,12,0,0,0,9.17,4.25c4.24,0,7.13-1.87,7.13-5.61v-.51c-.17,3.4-3.06,5.1-7.13,5.1a12.34,12.34,0,0,1-9.17-4.25,7,7,0,0,0-4.58-2.88,4.29,4.29,0,0,0-4.59,4.24h0v.85c0-2.21,1.87-4.07,4.59-4.07Z"/><path id="Path_1364" data-name="Path 1364" class="cls-6" d="M332.47,173a21.42,21.42,0,0,1,10.7,2.71c2.88,1.7,6.28,4.93,6.62,8.15v-.51c0-3.56-3.57-7-6.62-8.65a21.33,21.33,0,0,0-10.7-2.72c-7.81.17-15.45,4.41-15.45,14.43v.51c.17-9.68,7.81-13.92,15.45-13.92Z"/><path id="Path_1365" data-name="Path 1365" class="cls-6" d="M215,211v.51a4.55,4.55,0,0,1,4.92-4.58h.34c5.94.51,2.38,9.17,10.53,9.17,4.92,0,7-3.06,7-9.17v-.85c0,6.28-2,9.17-7,9.17-8.32.17-4.76-8.66-10.53-9a4.75,4.75,0,0,0-5.26,4.24h0V211Z"/><path id="Path_1366" data-name="Path 1366" class="cls-6" d="M290.88,172.83c-2.89,0-4.92,2-4.92,5.6v.85c0-3.57,2-5.6,4.92-5.6s4.92,2,4.92,5.6v-.85C295.8,174.87,293.77,172.83,290.88,172.83Z"/><path id="Path_1367" data-name="Path 1367" class="cls-6" d="M307.35,172.66c-3.57.17-5.1,2.38-5.1,6.79v.85c0-4.25,1.53-6.62,5.1-6.79a4.46,4.46,0,0,1,5.09,3.9v.34C312.44,174.7,310.91,172.66,307.35,172.66Z"/><path id="Path_1368" data-name="Path 1368" class="cls-6" d="M242.84,172.83c-3.06,0-4.92,2-4.92,5.6v.85c0-3.57,1.86-5.6,4.92-5.6s4.92,2,4.92,5.6v-.85C247.76,174.87,245.73,172.83,242.84,172.83Z"/><path id="Path_1369" data-name="Path 1369" class="cls-6" d="M141,173h13.58c11.71,0,17.65,5.77,18,13.92v-.34c0-8.49-5.94-14.43-18-14.43H141a4.58,4.58,0,0,0-4.93,4.24v1.36a4.72,4.72,0,0,1,4.42-4.92H141Z"/><path id="Path_1370" data-name="Path 1370" class="cls-6" d="M157.79,192.52c-3.22.68-5.26,1.87-5.26,4.92V198c.17-2.71,2.21-3.9,5.26-4.58s4.92-2.21,4.92-5.43v-.51C162.54,190.48,160.68,192,157.79,192.52Z"/><path id="Path_1371" data-name="Path 1371" class="cls-6" d="M155.75,216.46c6.12,0,9.34-2,9.34-6V210c-.17,3.73-3.39,5.6-9.34,5.6h-10v.85Z"/></g><path id="Path_1372" data-name="Path 1372" class="cls-6" d="M166.28,197.44h0v-.17h0l-.51.34c-.17.17-.17.34,0,.34h.17l.51.17a13.39,13.39,0,0,1,8.83,12.56v-.5a12.68,12.68,0,0,0-.68-4.42,13.52,13.52,0,0,0-8.32-8.32Z"/></g></g></svg>