<svg id="Layer_1" data-name="Layer 1" xmlns="http://www.w3.org/2000/svg" viewBox="0 0 400 400"><defs><style>.cls-1{fill:#fff;}.cls-2{fill:#1f70c1;}</style></defs><rect class="cls-1" x="-515.34" y="-1866.79" width="2777.89" height="4120.23"/><path class="cls-2" d="M55,142v7.94h56.45V142Zm64.44,0v7.94h80.45s-8.22-7.94-19.1-7.94Zm96.23,0v7.94h48.66L261.44,142Zm83.55,0-2.88,7.94h48.22V142ZM55,157.43v7.94h56.45v-7.94Zm64.44,0v7.92h89.78s-1.05-6.11-2.88-7.92Zm96.23,0v7.92h54L267,157.45Zm77.78,0-2.68,7.92h53.79v-7.92ZM71.22,172.87v7.95H95.67v-7.95Zm64.45,0v7.95h24.44v-7.95Zm48.22,0v7.95h24.45a27.1,27.1,0,0,0,1.55-7.95Zm48,0v7.95h43.34l-2.89-7.95Zm56.23,0-2.9,7.95h43.56v-7.95ZM71.22,188.31v7.94H95.67v-7.94Zm64.45,0v7.94h62.44s5.22-4.07,6.89-7.94Zm96.22,0v7.94h24.45v-4.42l1.55,4.42h44.78l1.66-4.42v4.42h24.45v-7.94H282.89L280.45,195,278,188.31ZM71.22,203.75v7.94H95.67v-7.94Zm64.45,0v7.94H205c-1.67-3.86-6.89-7.94-6.89-7.94Zm96.22,0v7.94h24.45v-7.94Zm28.89,0,3,7.94h33.58l2.81-7.94Zm43.55,0v7.94h24.45v-7.94ZM71.22,219.18v7.94H95.67v-7.94Zm64.45,0v7.94h24.44v-7.94Zm48.22,0v7.94h26a27,27,0,0,0-1.55-7.94Zm48,0v7.94h24.45v-7.94Zm34.44,0,2.86,7.94H291.7l2.89-7.94Zm38,0v7.94h24.45v-7.94ZM55.44,234.62v7.95h56.45v-7.95Zm64,0v7.95h86.9c1.83-1.82,2.88-7.95,2.88-7.95Zm96.67,0v7.95h40.23v-7.95Zm55.78,0,2.94,7.95h11.46l2.76-7.95Zm32.44,0v7.95H345v-7.95ZM55.44,250.06V258h56.45v-7.94Zm64,0V258h61.35c10.88,0,19.1-7.93,19.1-7.93Zm96.67,0V258h40.23v-7.94Zm61.36,0,2.84,7.92h.48l2.88-7.93Zm26.86,0V258H345v-7.94Z"/></svg>