<svg id="Layer_1" data-name="Layer 1" xmlns="http://www.w3.org/2000/svg" viewBox="0 0 400 400"><defs><style>.cls-1{fill:#fff;}.cls-2{fill:#1d1a6e;}.cls-2,.cls-3{fill-rule:evenodd;}.cls-3{fill:#443eff;}</style></defs><rect class="cls-1" x="-2275.34" y="-546.79" width="2777.89" height="4120.23"/><path class="cls-2" d="M333.17,204.07v.55c0,3.12,1.76,5.25,5.22,5.25a6.53,6.53,0,0,0,5.47-3l2.84,3.21c-1.77,2.45-4.9,4-8.89,4-6.33,0-10.12-4.46-10.12-11.42s3.67-11.33,10-11.33c6.7,0,9.79,5,9.79,10.95v1.75Zm8.8-3.66c0-3-1.52-5-4.24-5s-4.56,2.08-4.56,5.08v.33H342Zm-24.53,9.41c2.5,0,3.74-1.45,4.52-3.41l4,2c-1.4,3.83-4.4,5.75-8.55,5.75-6.34,0-9.92-4.42-9.92-11.42s3.58-11.33,9.92-11.33c4.31,0,7.15,2.08,8.43,5.5l-4.32,1.95a4,4,0,0,0-4.11-3.16c-2.93,0-4.41,2.08-4.41,5.12v4C313,207.78,314.51,209.82,317.44,209.82Zm-18.86-9.41c0-3.09-1-4.67-3.54-4.67-2.18,0-4.28,1.17-4.28,3.5v14.38H285.5V191.87h5.26v3.62H291a5.92,5.92,0,0,1,6-4.12c4.41,0,6.87,3.08,6.87,8.5v13.75h-5.26ZM275,209.87h-.24c-.7,2.79-3.05,4.25-6.26,4.25-4.36,0-6.83-2.55-6.83-6.42,0-4.46,3.33-6.67,9.18-6.67h3.66v-1.58c0-2.42-1.2-3.83-4-3.83a5.58,5.58,0,0,0-4.9,2.75l-3.12-2.84c1.56-2.5,4.07-4.16,8.39-4.16,5.8,0,8.88,2.79,8.88,7.75v10.25h2.14v4.25H279C276.76,213.62,275.36,212.12,275,209.87Zm-.49-5.63h-3.38c-2.75,0-4.11,1-4.11,2.67v.71c0,1.75,1.19,2.62,3.25,2.62,2.35,0,4.24-1.08,4.24-3.12Zm-21.7-3.83c0-3.09-1-4.67-3.53-4.67-2.19,0-4.28,1.17-4.28,3.5v14.38h-5.27V191.87H245v3.62h.2a5.94,5.94,0,0,1,6-4.12c4.4,0,6.87,3.08,6.87,8.5v13.75h-5.27ZM231.77,188.7c-2.19,0-3.09-1.12-3.09-2.67v-.83c0-1.54.9-2.67,3.09-2.67s3.08,1.13,3.08,2.67V186C234.85,187.58,233.9,188.7,231.77,188.7Zm0,3.17h2.63v21.75h-5.27V196.74h-5.26v-4.87Zm-22.26,5.58h11.36v4.87H209.51v11.3h-5.43V185.37h18.47v4.87h-13Zm-18.36,16.92a6.07,6.07,0,0,1-5.92-4.13h-.16v12H179.8V192.12h5.27v3.58h.16a6,6,0,0,1,5.92-4.08c5.43,0,8.44,4.08,8.44,11.33s-3,11.42-8.44,11.42Zm2.93-13.25c0-3.09-1.9-5.13-4.61-5.13-2.51,0-4.4,1.38-4.4,3.5v6.92c0,2.25,1.89,3.54,4.4,3.54,2.71,0,4.61-2,4.61-5.08Zm-24.74,9h-.25c-.7,2.79-3.05,4.25-6.25,4.25-4.36,0-6.83-2.55-6.83-6.42,0-4.46,3.33-6.67,9.17-6.67h3.66V199.7c0-2.42-1.19-3.83-4-3.83a5.57,5.57,0,0,0-4.89,2.75l-3.13-2.84c1.56-2.5,4.07-4.16,8.39-4.16,5.8,0,8.89,2.79,8.89,7.75v10.25h2.14v4.25h-2.92C171.06,213.87,169.66,212.37,169.34,210.12Zm-.5-5.63h-3.37c-2.76,0-4.12,1-4.12,2.67v.71c0,1.75,1.2,2.62,3.26,2.62,2.34,0,4.23-1.08,4.23-3.12Zm-29.51.38c0,3.12,1.77,5.25,5.22,5.25a6.51,6.51,0,0,0,5.48-3l2.84,3.21c-1.77,2.45-4.9,4-8.89,4-6.34,0-10.12-4.46-10.12-11.42s3.66-11.33,9.95-11.33c6.71,0,9.8,5,9.8,11v1.75H139.33Zm8.8-3.84v-.37c0-3-1.52-5-4.23-5s-4.57,2.08-4.57,5.08V201Zm-33.72-15.41h5.43V209h11.31v4.88H114.41Z"/><path class="cls-3" d="M92,216.14a80.54,80.54,0,0,1-18.92,12.94l-.85.42a2,2,0,0,1-1.76,0l-.86-.42a80.74,80.74,0,0,1-18.92-12.94,10.18,10.18,0,0,1-3.28-7.48V186.75a1.88,1.88,0,0,1,.07-.53,1.91,1.91,0,0,1,0-.89A2.06,2.06,0,0,1,48.49,184L70.36,172a2,2,0,0,1,1.92,0l18.09,9.88L94.21,184a2,2,0,0,1,1.05,1.78v22.87A10.15,10.15,0,0,1,92,216.14Zm-38.6-3a76.48,76.48,0,0,0,17.95,12.28,76.43,76.43,0,0,0,17.94-12.28,6.06,6.06,0,0,0,2-4.48V188.89L86.49,191v11.35a6.94,6.94,0,0,1-2.24,5.09,49.18,49.18,0,0,1-11.54,7.89l-.51.25a2,2,0,0,1-1.77,0l-.51-.25a49.18,49.18,0,0,1-11.54-7.89,6.93,6.93,0,0,1-2.23-5.09V191l-4.75-2.13v19.75A6.1,6.1,0,0,0,53.37,213.14Zm17.71-15.53a2,2,0,0,1-.58-.15l-10.33-4.62v9.55a2.84,2.84,0,0,0,.93,2.09,45.23,45.23,0,0,0,10,6.93Zm.24-21.48-17.38,9.48,17.38,7.78,17.33-7.8-.2-.11Z"/></svg>