<svg id="Layer_1" data-name="Layer 1" xmlns="http://www.w3.org/2000/svg" viewBox="0 0 400 400"><defs><style>.cls-1,.cls-3{fill:#fff;}.cls-2,.cls-3,.cls-4{fill-rule:evenodd;}.cls-4{fill:#d7df23;}</style></defs><rect class="cls-1" x="-955.34" y="-986.79" width="2777.89" height="4120.23"/><path class="cls-2" d="M314.91,197.57l-19.16,33-16.34.07,35.5-62.12,35.37,62.12h-16.6l-18.77-33.08Zm-51.58,18.7h18.3l-8.5,14.37H249.27l.07-17.5V168.9h14l-.06,47.37ZM213.12,168.9c17.46.07,31.58,13.85,31.51,30.9S230.45,230.57,213,230.57s-31.51-13.85-31.51-30.9S195.66,168.9,213.12,168.9Zm-.06,47.31a16.44,16.44,0,1,0-16.81-16.47,16.62,16.62,0,0,0,16.81,16.47Zm-57.6-21.32a47.37,47.37,0,0,0-12.1-27.26,56,56,0,0,0-9.48-8.1q-4.78-2.37-9.41-5.05a38.59,38.59,0,0,0-7.65-3.57,55,55,0,0,0-11.57-1.47,51.44,51.44,0,0,0-11.25.89C90.15,151,86.94,152,82.69,153c-9.61,4.15-17.06,10.41-23.47,18.71-22.36,31.22-2.16,74.95,35.17,80.12A50.58,50.58,0,0,0,112.5,251l4.12-1.08a1.14,1.14,0,0,1,.46-.13l4.71-1.79c.26-.13.46-.19.72-.32l2-.89A53.89,53.89,0,0,0,135,240a60,60,0,0,1-9.54,7.08l.19.13c.66-.19,1.25-.38,1.9-.51,0,0,0,1-.13.83-1,.77.59.06,2.68-1a33.46,33.46,0,0,0,5.95-4,65.16,65.16,0,0,0,8.37-8.62c3.4-5.94,7.65-11.11,9.61-18.07a40,40,0,0,0,1.64-6.25,41.17,41.17,0,0,0,.65-6.9A54,54,0,0,0,155.46,194.89Zm-48.38,52.48c11.44-1.79,21-8.11,28.89-16.72,2.16-3.13,3.86-6,5.95-9.13,2.62-6.39,2.42-12.07,3.27-16.09,1.05-7.28-1.43-13.15-3.53-19.41-3.2-7.28-7.45-12.7-14.9-16.92-18.83-11.62-44.46-8.36-56.68,9a8.21,8.21,0,0,0-1,1.34c.85-3.57,3-5.68,5.16-7.72a56,56,0,0,1,22.36-11.43c9.62-1,19.16,0,27.72,4.15,12.82,7.28,21.32,18.71,23.47,32.24v12.51C145.06,229.69,127.41,245.27,107.08,247.37Zm47-46.6c-.46-30-30.34-50.24-59.43-46.16-8.5,2.11-17.79,6.32-24.39,12.19-3.2,2.11-4.71,6-7.91,9.13-12.82,18.71-10.59,42.65,5.36,57.21a62.51,62.51,0,0,0,6.54,5.62c-13.34-8-19.35-20.06-21.45-34.73,0-5.24,1-10.41,2.16-15.65C62.43,165.46,85.9,148.8,111.46,153c4.25,1,8.5,2.11,12.82,3.13a45,45,0,0,1,14.9,9.39c4.25,4.15,7.46,9.38,10.66,14.55,2.16,4.15,3.2,9.39,4.25,13.54a44.92,44.92,0,0,1,0,7.15Z"/><path class="cls-3" d="M127.54,201.21c0,12.9-10.85,23.37-24.25,23.37S79,214.11,79,201.21s10.85-23.36,24.26-23.36,24.25,10.47,24.25,23.37Z"/><path class="cls-4" d="M127.67,197.25c-.32-1.78-.85-3.19-1.37-5.16a27.31,27.31,0,0,0-9.22-10.6c-15.17-10-36-.39-38.24,16.73a23.5,23.5,0,0,0,5.88,18.26A26.5,26.5,0,0,1,81,212.13l-.13.13c.13.38.65.64.78,1,0,0-.53,0-.39-.06-.39-.45-.07.26.52,1.21a12.62,12.62,0,0,0,2,2.68A28.29,28.29,0,0,0,88,220.88c2.88,1.47,5.43,3.38,8.76,4.28.92.26,2,.51,3,.7a19.19,19.19,0,0,0,3.33.26,20.84,20.84,0,0,0,3.73-.39,27.21,27.21,0,0,0,4.38-.89,22.54,22.54,0,0,0,8.63-4.86,29.4,29.4,0,0,0,4.38-4.53c1.11-2.17,1.24-3.25,1.77-4.21a18.46,18.46,0,0,0,1.63-3.51,30.6,30.6,0,0,0,.66-5.3,27.19,27.19,0,0,0-.59-5.17Zm-15.56-11.87c2.22,1.28,2.55,1.47,1.37.64a8,8,0,0,1,3.8,2.3A25.11,25.11,0,0,1,123,198.47a22.16,22.16,0,0,1-1.76,12.7,21.67,21.67,0,0,1-15.3,11c-.72,0-1.5,0-2.22.07,1.83-.32,3-1.47,6.34-2.69,3.59-1.27,7.65-7.21,9.61-10.66C125.38,199.49,118.58,190.81,112.11,185.38Zm-12.29,36.9a21.13,21.13,0,0,1-18.63-18.51c.91,5.23,4,9.25,8.3,12.83,1.51,1,3.73,2.3,5.23,3.26,2.55.95,4,2,6.54,2.42Zm26.74-17c-.45,2-.91,3.89-1.37,5.87a20.89,20.89,0,0,1-4.38,6.89,33.58,33.58,0,0,1-6.93,5,29.94,29.94,0,0,1-6.47,2c-1.18.13-2.55-.38-3.73-.44,14.51-.38,24.45-13.85,22.29-27.2a31.42,31.42,0,0,0-5.69-10.66c-1-1.47-3.07-2.36-4.57-3.83-9.09-5.68-21.12-4.53-28,2.94A30.83,30.83,0,0,0,85,189a24.39,24.39,0,0,1,16.61-10.22,38.4,38.4,0,0,1,7.52.83c11,3.32,19.16,13.92,17.39,25.67Z"/></svg>