<svg id="Layer_1" data-name="Layer 1" xmlns="http://www.w3.org/2000/svg" viewBox="0 0 400 400"><defs><style>.cls-1{fill:#fff;}</style></defs><rect class="cls-1" x="-515.34" y="-2306.79" width="2777.89" height="4120.23"/><path d="M49.8,216.32V173.85H64.4a28.79,28.79,0,0,1,6.58.72,14,14,0,0,1,5.34,2.28,10.69,10.69,0,0,1,3.58,4.23,13.8,13.8,0,0,1,1.37,6.45A14.26,14.26,0,0,1,79.9,194a12.32,12.32,0,0,1-3.58,4.5,15.34,15.34,0,0,1-5.28,2.6,23.19,23.19,0,0,1-6.38.85H59.38v14.39Zm9.58-22h4.69q7.82,0,7.82-6.78c0-2.21-.7-3.78-2.09-4.69a10.92,10.92,0,0,0-6-1.37H59.38Zm34.37,22.8a10,10,0,0,1-4-.79,8.39,8.39,0,0,1-3-2,10.44,10.44,0,0,1-1.95-3.13,10.88,10.88,0,0,1-.66-3.85,9.06,9.06,0,0,1,4.3-7.94q4.3-2.87,13.88-3.85a5.21,5.21,0,0,0-1.3-3.38,4.74,4.74,0,0,0-3.78-1.31,11.83,11.83,0,0,0-4.17.78,32.37,32.37,0,0,0-4.37,2.15l-3.45-6.31a34.88,34.88,0,0,1,6.52-3.07A22.54,22.54,0,0,1,99,183.23q6.26,0,9.51,3.58t3.33,11v18.5H104l-.65-3.32h-.26a21.54,21.54,0,0,1-4.37,3A11.29,11.29,0,0,1,93.75,217.11ZM97,209.68a5.23,5.23,0,0,0,2.8-.72,13.11,13.11,0,0,0,2.48-2v-5.66c-3.39.47-5.73,1.17-7,2.08a3.94,3.94,0,0,0-1.95,3.26,2.82,2.82,0,0,0,1,2.34A4.69,4.69,0,0,0,97,209.68Zm34.49,20.39a25.9,25.9,0,0,1-5.35-.52,15.46,15.46,0,0,1-4.29-1.43,7.81,7.81,0,0,1-2.87-2.54,6.52,6.52,0,0,1-1-3.72c0-2.6,1.54-4.78,4.62-6.51v-.26a7.34,7.34,0,0,1-2.15-2.15,6,6,0,0,1-.84-3.33,5.84,5.84,0,0,1,1-3.32,9.67,9.67,0,0,1,2.6-2.73v-.26a11.41,11.41,0,0,1-3.06-3.33,9.8,9.8,0,0,1-1.3-5.08,10.94,10.94,0,0,1,1.11-5.08,10.45,10.45,0,0,1,2.93-3.65,12.63,12.63,0,0,1,4.3-2.21,17.39,17.39,0,0,1,5-.72,14.7,14.7,0,0,1,5,.78H149v7h-5.15a5.73,5.73,0,0,1,.72,1.83,8.41,8.41,0,0,1,.33,2.41,11.39,11.39,0,0,1-1,4.88,9.32,9.32,0,0,1-2.74,3.39,11.7,11.7,0,0,1-4,2,18.12,18.12,0,0,1-5,.65,12.86,12.86,0,0,1-3.91-.65,3.28,3.28,0,0,0-.91,1,3.12,3.12,0,0,0-.26,1.37,2,2,0,0,0,1,1.82,8.94,8.94,0,0,0,3.85.59h5.21q6,0,9.12,1.95t3.19,6.25a8.54,8.54,0,0,1-1.3,4.63,10.74,10.74,0,0,1-3.58,3.65,18.61,18.61,0,0,1-5.67,2.41A28.25,28.25,0,0,1,131.49,230.07Zm.71-29.77a4.16,4.16,0,0,0,3.13-1.3,5.76,5.76,0,0,0,1.3-4.11,5.2,5.2,0,0,0-1.3-3.84,4,4,0,0,0-3.13-1.37A4.33,4.33,0,0,0,129,191a5.51,5.51,0,0,0-1.24,3.91A6,6,0,0,0,129,199,4.37,4.37,0,0,0,132.2,200.3Zm.79,23.78a10.72,10.72,0,0,0,5.34-1.18,3.22,3.22,0,0,0,2.08-2.8,2,2,0,0,0-1.3-2,10,10,0,0,0-3.65-.52h-3.32a22.46,22.46,0,0,1-2.74-.13,9.94,9.94,0,0,1-1.82-.26,4.39,4.39,0,0,0-1.76,3.19,2.93,2.93,0,0,0,2,2.74A11.79,11.79,0,0,0,133,224.08Zm28.7-7a10,10,0,0,1-4-.79,8.56,8.56,0,0,1-3-2,10.85,10.85,0,0,1-2-3.13,11.11,11.11,0,0,1-.65-3.85,9,9,0,0,1,4.3-7.94q4.29-2.87,13.87-3.85a5.15,5.15,0,0,0-1.3-3.38,4.74,4.74,0,0,0-3.78-1.31,11.83,11.83,0,0,0-4.17.78,32.29,32.29,0,0,0-4.36,2.15l-3.45-6.31a34.5,34.5,0,0,1,6.51-3.07,22.56,22.56,0,0,1,7.3-1.17q6.25,0,9.51,3.58t3.32,11v18.5H172l-.65-3.32h-.26a21.48,21.48,0,0,1-4.36,3A11.33,11.33,0,0,1,161.69,217.11Zm3.26-7.43a5.25,5.25,0,0,0,2.8-.72,13.08,13.08,0,0,0,2.47-2v-5.66c-3.38.47-5.73,1.17-7,2.08a4,4,0,0,0-2,3.26,2.82,2.82,0,0,0,1,2.34A4.75,4.75,0,0,0,165,209.68Zm23,6.64V184h7.82l.65,5.67h.26a12.58,12.58,0,0,1,4.23-4.89,9.25,9.25,0,0,1,5-1.56,10.09,10.09,0,0,1,2.21.2,6,6,0,0,1,1.63.45l-1.56,8.28a13.1,13.1,0,0,0-1.7-.39,10.78,10.78,0,0,0-1.82-.14,7.16,7.16,0,0,0-3.85,1.31,9.57,9.57,0,0,0-3.25,4.62v18.76Zm27.59,0V173.59h12.7a27.14,27.14,0,0,1,5.93.59,13.45,13.45,0,0,1,4.62,1.82,8.32,8.32,0,0,1,3,3.26,9.48,9.48,0,0,1,1.11,4.75,10.78,10.78,0,0,1-1.63,5.8,8.13,8.13,0,0,1-4.63,3.52v.26a11.2,11.2,0,0,1,6.32,3.26,9.68,9.68,0,0,1,2.41,7,12.11,12.11,0,0,1-1.17,5.47,10.7,10.7,0,0,1-3.32,3.91,15.24,15.24,0,0,1-5.15,2.34,26.1,26.1,0,0,1-6.58.78Zm5.4-24.55h6.32q5.47,0,7.88-1.89a6.19,6.19,0,0,0,2.41-5.15c0-2.48-.84-4.24-2.54-5.28s-4.14-1.56-7.49-1.56h-6.58Zm0,20.26h7.43c3.69,0,6.56-.68,8.6-2a7.2,7.2,0,0,0,3.06-6.39,6.29,6.29,0,0,0-3-5.8q-3-1.89-8.66-1.89h-7.43Zm44.69,5.08A14.47,14.47,0,0,1,260,216a14,14,0,0,1-4.62-3.19,16.72,16.72,0,0,1-3.26-5.21,20,20,0,0,1-1.17-7,19.68,19.68,0,0,1,1.17-7,16.45,16.45,0,0,1,3.26-5.27A13.52,13.52,0,0,1,260,185a14.47,14.47,0,0,1,5.61-1.11,13.94,13.94,0,0,1,5.53,1.11,13.32,13.32,0,0,1,4.69,3.26,15.66,15.66,0,0,1,3.2,5.27,18.82,18.82,0,0,1,1.23,7,19.11,19.11,0,0,1-1.23,7,15.89,15.89,0,0,1-3.2,5.21,14.26,14.26,0,0,1-10.22,4.3Zm0-4.43a8.26,8.26,0,0,0,3.71-.85,8.61,8.61,0,0,0,2.86-2.48,11.49,11.49,0,0,0,1.89-3.84,18.89,18.89,0,0,0,0-9.9,11.57,11.57,0,0,0-1.89-3.91,8.06,8.06,0,0,0-10.29-2.48,8.42,8.42,0,0,0-2.93,2.48,12.5,12.5,0,0,0-1.82,3.91,18.89,18.89,0,0,0,0,9.9,12.42,12.42,0,0,0,1.82,3.84,9.37,9.37,0,0,0,2.93,2.48A8.27,8.27,0,0,0,265.58,212.68Zm35.3,4.43a14.46,14.46,0,0,1-5.6-1.11,13.93,13.93,0,0,1-4.62-3.19,16.53,16.53,0,0,1-3.26-5.21,20,20,0,0,1-1.17-7,19.68,19.68,0,0,1,1.17-7,16.28,16.28,0,0,1,3.26-5.27,13.43,13.43,0,0,1,4.62-3.26,14.46,14.46,0,0,1,5.6-1.11,14,14,0,0,1,5.54,1.11,13.41,13.41,0,0,1,4.69,3.26,15.49,15.49,0,0,1,3.19,5.27,18.62,18.62,0,0,1,1.24,7,18.91,18.91,0,0,1-1.24,7,15.7,15.7,0,0,1-3.19,5.21,14.26,14.26,0,0,1-10.23,4.3Zm0-4.43a8.27,8.27,0,0,0,3.72-.85,8.61,8.61,0,0,0,2.86-2.48,11.49,11.49,0,0,0,1.89-3.84,19.17,19.17,0,0,0,0-9.9,11.57,11.57,0,0,0-1.89-3.91,8.06,8.06,0,0,0-10.29-2.48,8.33,8.33,0,0,0-2.93,2.48,12.74,12.74,0,0,0-1.83,3.91,19.17,19.17,0,0,0,0,9.9,12.66,12.66,0,0,0,1.83,3.84,9.26,9.26,0,0,0,2.93,2.48A8.26,8.26,0,0,0,300.88,212.68Zm23,3.64V169.94h5.27v31.4h.2l13.49-16.68h5.92l-10.62,12.71,12.06,18.95h-5.87l-9.25-15.24L329.15,208v8.33Z"/></svg>