<svg id="Layer_1" data-name="Layer 1" xmlns="http://www.w3.org/2000/svg" viewBox="0 0 400 400"><defs><style>.cls-1{fill:#fff;}.cls-2{fill:#494949;}.cls-3{fill:#40c9ff;}.cls-4{fill:#9661ba;}.cls-5{fill:#ffa233;}.cls-6{fill:#ff5a7e;}.cls-7{fill:#ffd91d;}</style></defs><rect class="cls-1" x="-75.34" y="-546.79" width="2777.89" height="4120.23"/><g id="Layer_2" data-name="Layer 2"><g id="Layer_1-2" data-name="Layer 1-2"><path class="cls-2" d="M131.29,203.63c0-11.17-16.15-29.66-29.9-36.92-3.65-1.92-7.12-3.06-10.08-3.06-3.58,0-7.92,1.65-12.39,4.36A69.2,69.2,0,0,0,66,178.33a70.47,70.47,0,0,0-10.41,13c-2.64,4.41-4.29,8.7-4.29,12.25,0,14.14,25.85,40,40,40,3.57,0,7.88-1.65,12.36-4.34a71.34,71.34,0,0,0,12.93-10.34,69.53,69.53,0,0,0,10.39-13C129.66,211.48,131.29,207.18,131.29,203.63Z"/><path class="cls-3" d="M104.42,190.52a149.84,149.84,0,0,0-13.07-12.25,83.36,83.36,0,0,0-11.74-8.22,66,66,0,0,0-12.17,9.74l23.85,23.84Z"/><path class="cls-4" d="M100.82,168.82a21.35,21.35,0,0,0-9.51-2.89c-3.39,0-7.46,1.56-11.68,4.12a82.29,82.29,0,0,1,11.74,8.22Z"/><path class="cls-5" d="M103.73,216.06,91.31,203.63,67.46,179.79a65.46,65.46,0,0,0-9.83,12.31c8,13.79,23.16,27.6,33.78,36.28Z"/><path class="cls-6" d="M103,237.24c-1-.68-5.53-4-11.54-8.87-10.62-8.67-25.8-22.48-33.78-36.27-2.49,4.16-4,8.21-4,11.53C53.6,217,78,241.34,91.31,241.34,94.67,241.34,98.74,239.78,103,237.24Z"/><path class="cls-7" d="M129,203.63c0-10.53-15.24-28-28.19-34.81l-9.45,9.45a149.59,149.59,0,0,1,13,12.25L91.31,203.63l12.42,12.43L91.41,228.38c6,4.92,10.58,8.18,11.54,8.87a66.3,66.3,0,0,0,12.2-9.75A65.82,65.82,0,0,0,125,215.22C127.48,211,129,207,129,203.63Z"/><path class="cls-2" d="M151,216a2.06,2.06,0,0,1-.82-.67,1.72,1.72,0,0,1,.15-2.19,1.56,1.56,0,0,1,1.19-.5,2.09,2.09,0,0,1,.78.16,19.3,19.3,0,0,0,8,1.64c4.73,0,7.1-1.55,7.1-4.67a2.58,2.58,0,0,0-.91-2,6.59,6.59,0,0,0-2.26-1.28c-.9-.31-2.17-.68-3.82-1.12a48.16,48.16,0,0,1-5.33-1.64,9.29,9.29,0,0,1-3.49-2.38,6,6,0,0,1-1.46-4.21,7.5,7.5,0,0,1,1.23-4.21,8.37,8.37,0,0,1,3.59-3,13.35,13.35,0,0,1,5.7-1.12,23.39,23.39,0,0,1,8.08,1.34,1.56,1.56,0,0,1,1.13,1.62,1.74,1.74,0,0,1-.44,1.18,1.49,1.49,0,0,1-1.18.53,2.14,2.14,0,0,1-.65-.16,19.63,19.63,0,0,0-6.53-1.09,9.89,9.89,0,0,0-5.22,1.22,3.76,3.76,0,0,0-2,3.41,3.14,3.14,0,0,0,.95,2.38,6.52,6.52,0,0,0,2.39,1.42,38.47,38.47,0,0,0,3.92,1.06,40.58,40.58,0,0,1,5.18,1.55,8.39,8.39,0,0,1,3.36,2.4,6.49,6.49,0,0,1,1.41,4.38,6.89,6.89,0,0,1-1.3,4.09,8.64,8.64,0,0,1-3.65,2.81,13.4,13.4,0,0,1-5.45,1A24.4,24.4,0,0,1,151,216Z"/><path class="cls-2" d="M176.25,217.16a1.75,1.75,0,0,1-.53-1.29V189.52a1.82,1.82,0,0,1,.53-1.32,1.7,1.7,0,0,1,1.29-.55,1.87,1.87,0,0,1,1.87,1.86V200.1a13.24,13.24,0,0,1,3.33-2.72,8.35,8.35,0,0,1,4.21-1,7.11,7.11,0,0,1,3.88,1,7,7,0,0,1,2.51,2.89,9.32,9.32,0,0,1,.89,4v11.53a1.7,1.7,0,0,1-.55,1.29,1.86,1.86,0,0,1-1.32.53,1.82,1.82,0,0,1-1.83-1.79V204.73q0-4.95-4.45-4.95a6.42,6.42,0,0,0-3.63,1.06,13.19,13.19,0,0,0-3,2.84v12.17a1.79,1.79,0,0,1-.56,1.3,1.85,1.85,0,0,1-1.32.52A1.7,1.7,0,0,1,176.25,217.16Z"/><path class="cls-2" d="M210.55,213.77a9.38,9.38,0,0,0,2.8-2.17v-3.41h-4.43c-4.08,0-6.13,1.07-6.13,3.2a3,3,0,0,0,1,2.35,4.94,4.94,0,0,0,3.3.89A7.21,7.21,0,0,0,210.55,213.77Zm-8.15,3.39A5.65,5.65,0,0,1,200,215a5.87,5.87,0,0,1-.89-3.21,5.72,5.72,0,0,1,2.37-4.79c1.58-1.19,3.91-1.78,7-1.78h4.91v-.33a5,5,0,0,0-1.32-3.86,6.07,6.07,0,0,0-4.12-1.18,14,14,0,0,0-2.75.25,22.11,22.11,0,0,0-2.65.73,3.23,3.23,0,0,1-.53.08,1.52,1.52,0,0,1-1.49-1.53h0a1.57,1.57,0,0,1,1.07-1.54,17.89,17.89,0,0,1,7-1.47,9.15,9.15,0,0,1,4.73,1.14,7.06,7.06,0,0,1,2.84,2.94,8.66,8.66,0,0,1,.9,3.91v11.49a1.7,1.7,0,0,1-.55,1.29,1.84,1.84,0,0,1-1.32.53,1.81,1.81,0,0,1-1.82-1.79v-1.1a10.28,10.28,0,0,1-7.65,3.07A7.31,7.31,0,0,1,202.4,217.16Z"/><path class="cls-2" d="M223.78,217.16a1.75,1.75,0,0,1-.53-1.29V198.46a1.83,1.83,0,0,1,.53-1.33,1.7,1.7,0,0,1,1.29-.55,1.87,1.87,0,0,1,1.87,1.86h0v1.74c1.89-2.54,4-3.82,6.37-3.82h.22a1.72,1.72,0,0,1,1.27.52,1.84,1.84,0,0,1,.5,1.3,1.64,1.64,0,0,1-.52,1.26,1.85,1.85,0,0,1-1.34.5h-.22a6.87,6.87,0,0,0-3.56,1,8.18,8.18,0,0,0-2.71,2.62v12.35a1.7,1.7,0,0,1-.55,1.29,1.84,1.84,0,0,1-1.33.53A1.7,1.7,0,0,1,223.78,217.16Z"/><path class="cls-2" d="M252.63,205.43a6.49,6.49,0,0,0-1-3.33,5.67,5.67,0,0,0-2.26-2,6.21,6.21,0,0,0-5.45,0,5.47,5.47,0,0,0-2.24,2,6.56,6.56,0,0,0-1,3.33Zm-12.92,9.65c-1.86-1.89-2.77-4.52-2.77-7.93a13.18,13.18,0,0,1,1.06-5.33,9.1,9.1,0,0,1,3.23-3.93,9.33,9.33,0,0,1,5.4-1.49,9.46,9.46,0,0,1,5.2,1.41,9,9,0,0,1,3.32,3.72,11.65,11.65,0,0,1,1.14,5.09,1.77,1.77,0,0,1-1.71,1.83H240.67a6.63,6.63,0,0,0,2.11,4.42,7.25,7.25,0,0,0,5,1.58,12,12,0,0,0,3-.32,13.23,13.23,0,0,0,2.5-.94A1.61,1.61,0,0,1,254,213a1.65,1.65,0,0,1,1.14.45,1.52,1.52,0,0,1,.5,1.13,1.73,1.73,0,0,1-1.07,1.5,12.65,12.65,0,0,1-7.1,1.78,10.39,10.39,0,0,1-7.73-2.81Z"/><path class="cls-2" d="M266.9,216.13a12.75,12.75,0,0,1-5.07-5.07,17.1,17.1,0,0,1,0-15.47,12.66,12.66,0,0,1,5.07-5.06,14.94,14.94,0,0,1,7.29-1.77,17.08,17.08,0,0,1,4.93.64,21.26,21.26,0,0,1,4.33,1.86,1.67,1.67,0,0,1,.9,1.55,1.56,1.56,0,0,1-1.57,1.54h-.06a1.55,1.55,0,0,1-.73-.16,19.64,19.64,0,0,0-3.49-1.42,14.45,14.45,0,0,0-3.93-.49,11.68,11.68,0,0,0-5.95,1.43,9.23,9.23,0,0,0-3.69,3.94,13.56,13.56,0,0,0,0,11.32,9.15,9.15,0,0,0,3.69,3.93,11.55,11.55,0,0,0,5.95,1.44,14.08,14.08,0,0,0,3.93-.5,18.25,18.25,0,0,0,3.49-1.42,1.69,1.69,0,0,1,.73-.16,1.66,1.66,0,0,1,1.18.45,1.48,1.48,0,0,1,.45,1.09,1.63,1.63,0,0,1-.9,1.54,20.75,20.75,0,0,1-4.33,1.87,17.43,17.43,0,0,1-4.93.64A14.67,14.67,0,0,1,266.9,216.13Z"/><path class="cls-2" d="M289.69,217.16a1.73,1.73,0,0,1-.51-1.29V189.52a1.85,1.85,0,0,1,.52-1.32,1.74,1.74,0,0,1,1.3-.55,1.87,1.87,0,0,1,1.87,1.86V200.1a13.24,13.24,0,0,1,3.33-2.72,8.33,8.33,0,0,1,4.2-1,7.12,7.12,0,0,1,3.89,1,6.93,6.93,0,0,1,2.5,2.89,9.3,9.3,0,0,1,.87,4v11.53a1.7,1.7,0,0,1-.55,1.29,1.84,1.84,0,0,1-1.33.53,1.81,1.81,0,0,1-1.82-1.79V204.73q0-4.95-4.46-4.95a6.36,6.36,0,0,0-3.62,1.06,13,13,0,0,0-3,2.84v12.18a1.7,1.7,0,0,1-.55,1.29,1.82,1.82,0,0,1-1.32.53A1.7,1.7,0,0,1,289.69,217.16Z"/><path class="cls-2" d="M324,213.77a9.38,9.38,0,0,0,2.8-2.17v-3.41h-4.42q-6.12,0-6.12,3.2a3,3,0,0,0,1,2.35,4.9,4.9,0,0,0,3.3.89A7.14,7.14,0,0,0,324,213.77Zm-8.14,3.39a5.65,5.65,0,0,1-2.41-2.13,5.89,5.89,0,0,1-.9-3.22,5.7,5.7,0,0,1,2.38-4.79c1.58-1.19,3.91-1.78,7-1.78h4.91v-.33a4.91,4.91,0,0,0-1.33-3.85,6,6,0,0,0-4.12-1.19,14,14,0,0,0-2.74.25,24.32,24.32,0,0,0-2.66.73,2.25,2.25,0,0,1-.52.08,1.51,1.51,0,0,1-1.49-1.53h0a1.57,1.57,0,0,1,1.06-1.55,17.79,17.79,0,0,1,7-1.46,9.18,9.18,0,0,1,4.73,1.13,7.12,7.12,0,0,1,2.84,2.94,8.59,8.59,0,0,1,.92,3.92v11.49a1.7,1.7,0,0,1-.55,1.29,1.84,1.84,0,0,1-1.33.53,1.81,1.81,0,0,1-1.83-1.78v-1.09a10.14,10.14,0,0,1-7.63,3.08A7.53,7.53,0,0,1,315.85,217.16Z"/><path class="cls-2" d="M347.66,215.74a1.53,1.53,0,0,1-.93,1.42,8,8,0,0,1-3.37.75q-5.92,0-5.92-5.36V200h-2.35a1.47,1.47,0,0,1-1.13-.46,1.55,1.55,0,0,1-.44-1.11A1.53,1.53,0,0,1,335,196.8h2.45v-7.33a1.81,1.81,0,0,1,1.8-1.82h0a1.84,1.84,0,0,1,1.33.53,1.72,1.72,0,0,1,.54,1.28v7.32h4.59a1.59,1.59,0,0,1,1.58,1.6,1.58,1.58,0,0,1-.45,1.1,1.45,1.45,0,0,1-1.13.46h-4.59V212.2c0,1.06.25,1.73.74,2a3.67,3.67,0,0,0,1.89.43,5.65,5.65,0,0,0,1.63-.25l.34-.08a1.94,1.94,0,0,1,.48,0,1.42,1.42,0,0,1,1,.42A1.46,1.46,0,0,1,347.66,215.74Z"/></g></g></svg>