<svg id="Layer_1" data-name="Layer 1" xmlns="http://www.w3.org/2000/svg" viewBox="0 0 400 400"><defs><style>.cls-1{fill:#fff;}.cls-2{fill:#f5ab40;}.cls-3{fill:#00a7dc;}</style></defs><rect class="cls-1" x="-515.34" y="-986.79" width="2777.89" height="4120.23"/><path class="cls-2" d="M206.22,243.73V204.6h-6v39.13h6Zm-6-52.93H206v6.39h-5.76Z"/><path class="cls-3" d="M213.84,163.41h5.77v55.2h-5.77Z"/><path class="cls-2" d="M186.66,163.41h5.76v55.2h-5.76ZM80,180.51h5.77v38.1H80Z"/><path class="cls-3" d="M241.23,180.51c-10.71,0-17.09,8.65-17.09,19.77,0,10.91,6.79,18.33,17.91,18.33a29.86,29.86,0,0,0,12.15-2.27l.42-.21v-4.94a37.91,37.91,0,0,1-11.74,2.27c-6.59,0-12.36-3.71-12.56-12.57h25.74c0-.61.2-1.64.2-3.08,0-6.8-3.09-17.3-15-17.3M249.88,196H230.52c.62-4.53,3.5-10.71,10.09-10.71,7.62,0,9.47,6.59,9.27,10.71m40.57-1.85c.2-7.41-3.71-13.59-14.62-13.59-4.74,0-8.86.61-11.95,2.47v4.94a28.45,28.45,0,0,1,10.92-2.68c7.82.42,9.47,5.36,9.47,8.45V197C268,192,260.59,199,260.79,208.1c.21,5.36,3.92,10.51,11.54,10.51,5.14,0,9.88-1.24,12.15-3.92v3.92h6V194.1m-6,14c-2.48,2.89-5.36,5.77-10.3,5.77-3.5,0-7-2.27-7-6.59,0-7.21,9.26-7.41,17.3-5.15Z"/><path class="cls-2" d="M181.3,192.25c-2.06-7.83-7.41-11.54-15-11.74H164a1.27,1.27,0,0,0-.82.2,15.47,15.47,0,0,0-8,4.12v-4.32h-5.77V235.9h5.77V214.69a16.2,16.2,0,0,0,8.85,3.92h3.3c6-.62,10.3-3.3,12.77-8.65a25.11,25.11,0,0,0,1.23-17.71m-5.15,8.44v.82c-.2,1.44-.61,2.89-.82,3.92-.41,1-2.27,5.56-6.8,6.79a10.18,10.18,0,0,1-2.67.41s-7.42,0-10.71-6V192a11.57,11.57,0,0,1,8.44-6.18,12.77,12.77,0,0,1,6,.41h.21l.41.21.41.21.42.2c1.85,1.24,5.14,4.53,5.35,11.33,0,1-.21,1.65-.21,2.47"/><path class="cls-3" d="M301,185v-4.53h-6.18v38.1H301V197.39c0-4.11.82-6.17,1-6.38l1.24-1.85a12.27,12.27,0,0,1,3.7-2.47c.62-.21,1.24-.42,2.06-.62h1c.83-.21,1.65-.21,2.68-.41h2.88v-5.15C306.51,180.1,302,184.21,301,185Z"/><path class="cls-2" d="M75.45,205.84c-.41-4.33-3.09-6.8-7.21-8A18.88,18.88,0,0,0,65,197a62.67,62.67,0,0,1-6.59-1.85c-3.91-1.65-3.09-6.39-.82-8a9,9,0,0,1,5.14-1.65h3.5a21.54,21.54,0,0,1,3.51.62,32.71,32.71,0,0,1,4.11,1.44v-4.94a8.62,8.62,0,0,1-1.23-.42A28.88,28.88,0,0,0,60,180.92c-5.56.82-10.51,4.74-9.89,11.94A6.72,6.72,0,0,0,54.45,199,40.67,40.67,0,0,0,61,201.1c1.85.62,3.91,1.24,5.76,1.85a3.39,3.39,0,0,1,2.27,2.68c.82,2.88-.21,5.36-3.3,6.8-2.67,1.23-5.56,1.23-8.44,1-5.15-.42-7.21-2.06-7.21-2.06v4.73s1.44.62,3.3,1.24l2.47.62a25.67,25.67,0,0,0,8.85-.21,23.58,23.58,0,0,0,5.36-1.85c3.91-1.65,6-5.56,5.35-10.09M80,169h5.77v6.39H80Z"/><path class="cls-3" d="M350.17,190.6a13.16,13.16,0,0,0-10.09-9.89h-.62a18.38,18.38,0,0,0-8.65.83l-.41.2a9.85,9.85,0,0,0-4.12,3.09v-4.32H320.1V218.4h6.18V195.13a9.19,9.19,0,0,1,9.27-9.06h.2s4.53-.41,7.21,3.09l.21.2.41.62c.21.41.41.62.62,1,0,.21.2.41.2.82a28.35,28.35,0,0,1,.62,6.8V218.4h6.18V195.75c-.41-2.06-.62-3.71-1-5.15"/><path class="cls-2" d="M130,180.51c-7.41.2-10.7,3.7-11.73,5.15l-.42.61v-.41l-.2-.2-.21-.42a11.06,11.06,0,0,0-4.53-3.7,17.63,17.63,0,0,0-5.76-1H107a13.05,13.05,0,0,0-6.38,1.23,11.42,11.42,0,0,0-4.53,3.09v-4.32H90.28V218.4h5.77V195.54a10,10,0,0,1,.41-3.09,9.27,9.27,0,0,1,9.06-7A8.88,8.88,0,0,1,114,190.8a9.68,9.68,0,0,1,.62,3.5v23.89h5.77V194.72a9.09,9.09,0,0,1,9.26-9.27,9,9,0,0,1,5.15,1.65,8.65,8.65,0,0,1,4.12,7.41v23.68h6V195.33a16.71,16.71,0,0,0-1.65-7.62c-3.7-6.59-10.5-7.2-13.18-7.2"/></svg>