<svg id="Layer_1" data-name="Layer 1" xmlns="http://www.w3.org/2000/svg" viewBox="0 0 400 400"><defs><style>.cls-1{fill:#fff;}.cls-2{fill:#1f7ae0;}</style></defs><rect class="cls-1" x="-2275.34" y="-2306.79" width="2777.89" height="4120.23"/><path class="cls-2" d="M345.35,197.38a5.57,5.57,0,0,0-5.81-5.28c-3.75,0-5.92,2.36-6.26,5.27h12.07Zm-5.69-9.54a10.36,10.36,0,0,1,10.7,10.66,7,7,0,0,1-.11,1.57,1.1,1.1,0,0,1-1,1H332.94c0,3.14,3,6.28,7.06,6.28a10.15,10.15,0,0,0,5.81-1.91.86.86,0,0,1,1.36.12l1.37,2.13c.45.45.57.89-.12,1.57a13.67,13.67,0,0,1-8.76,2.92c-7.18,0-11.73-5.5-11.73-12.12S332.49,187.84,339.66,187.84Zm-31.88,22a1,1,0,0,1-.45-1.24l1-2.13a1.07,1.07,0,0,1,1.48-.33,10.81,10.81,0,0,0,5.81,1.68c1.93,0,3.07-.9,3.07-2.24,0-1.57-1.82-2.58-5-4-3.64-1.57-6.37-3.48-6.37-7.29,0-2.92,2-6.29,7.74-6.29a13.77,13.77,0,0,1,6.83,1.68,1.28,1.28,0,0,1,.45,1.69l-.79,1.57a1.07,1.07,0,0,1-1.48.45,12.48,12.48,0,0,0-5-1.12c-2.05,0-3,1-3,2,0,1.45,1.7,2.35,4,3.36,4.33,1.79,7.63,3.37,7.63,7.63,0,3.59-3.19,6.73-8.43,6.73a12.12,12.12,0,0,1-7.51-2.13ZM291.27,208a7.32,7.32,0,0,0,5.47-2.8v-3.82a11,11,0,0,0-4.33-.78c-2.73,0-4.9,1.46-4.9,3.81A3.54,3.54,0,0,0,291.27,208Zm.8-11.1a20.32,20.32,0,0,1,4.78.67c.12-3.7-.79-5.27-3.76-5.27a25.11,25.11,0,0,0-6.6,1.12c-.68.11-1.14-.34-1.36-1l-.46-1.91a1.11,1.11,0,0,1,.8-1.35,26.6,26.6,0,0,1,8.08-1.34c7.51,0,8.2,4.49,8.2,10.21v12.34a1.22,1.22,0,0,1-1.14,1.12H298.9c-.46,0-.68-.22-.91-.78l-.57-1.57a10.17,10.17,0,0,1-7.28,2.91c-4.45,0-7.63-2.91-7.63-7.74.11-4.15,3.53-7.4,9.56-7.4ZM270,187.84a10.24,10.24,0,0,1,8.54,4,1.13,1.13,0,0,1-.22,1.68l-1.83,1.69c-.68.55-1.14.11-1.48-.23A6.89,6.89,0,0,0,262.92,200a7.13,7.13,0,0,0,6.95,7.4c3.07,0,4.33-1.68,5.58-2.92a1.21,1.21,0,0,1,1.59-.11l1.6,1.24a1.26,1.26,0,0,1,.45,1.68,10.72,10.72,0,0,1-9.22,4.82A12,12,0,0,1,257.8,200,12.36,12.36,0,0,1,270,187.84Zm-23-10.32a1.13,1.13,0,0,1,1.13-1.12H251a1.22,1.22,0,0,1,1.14,1.12v33a1.22,1.22,0,0,1-1.14,1.12h-2.84A1.14,1.14,0,0,1,247,210.5Zm-12.53,0a1.13,1.13,0,0,1,1.14-1.12h2.85a1.22,1.22,0,0,1,1.14,1.12v33a1.23,1.23,0,0,1-1.14,1.12H235.6a1.14,1.14,0,0,1-1.14-1.13ZM216.93,208a7.34,7.34,0,0,0,5.47-2.8v-3.82a11,11,0,0,0-4.33-.78c-2.73,0-4.89,1.46-4.89,3.81A3.41,3.41,0,0,0,216.93,208Zm.69-11.1a20.32,20.32,0,0,1,4.78.67c.11-3.7-.8-5.27-3.76-5.27a25.11,25.11,0,0,0-6.6,1.12c-.69.11-1.14-.34-1.37-1l-.46-1.91a1.11,1.11,0,0,1,.8-1.35,26.75,26.75,0,0,1,8.08-1.34c7.52,0,8.32,4.49,8.32,10.21v12.34a1.22,1.22,0,0,1-1.14,1.12h-1.71c-.46,0-.68-.22-1-.78l-.58-1.57a10.16,10.16,0,0,1-7.28,2.91c-4.44,0-7.63-2.91-7.63-7.74.12-4.15,3.53-7.4,9.57-7.4Zm-50.1-7.41a1.13,1.13,0,0,1,1.14-1.12h1.14c.57,0,.91.22,1,.67l.69,2a9.81,9.81,0,0,1,7.51-3.25,8.06,8.06,0,0,1,7.17,3.7,11.14,11.14,0,0,1,8-3.7c7.18,0,9,4.94,9,11V210.5a1.14,1.14,0,0,1-1.14,1.13h-2.85A1.07,1.07,0,0,1,198,210.5V198.61c0-3.7-1.48-6-4.66-6a7.75,7.75,0,0,0-5.7,2.7,17.93,17.93,0,0,1,.23,3.14v12a1.12,1.12,0,0,1-1,1.12h-3a1.07,1.07,0,0,1-1.14-1.13V198.61c0-3.82-1.37-6-4.67-6a6,6,0,0,0-5.58,3.37V210.5a1.22,1.22,0,0,1-1.14,1.13h-2.84a1.14,1.14,0,0,1-1.14-1.13v-21ZM146,209.83a1,1,0,0,1-.45-1.24l1-2.13a1.08,1.08,0,0,1,1.49-.33,10.77,10.77,0,0,0,5.8,1.68c1.94,0,3.07-.9,3.07-2.24,0-1.57-1.82-2.58-5-4-3.64-1.57-6.37-3.48-6.37-7.29,0-2.92,2-6.29,7.74-6.29a13.77,13.77,0,0,1,6.83,1.68,1.29,1.29,0,0,1,.46,1.69l-.8,1.57a1.06,1.06,0,0,1-1.48.45,12.44,12.44,0,0,0-5-1.12c-2,0-3,1-3,2,0,1.45,1.71,2.35,4,3.36,4.32,1.79,7.62,3.37,7.62,7.63,0,3.59-3.18,6.73-8.42,6.73A12.13,12.13,0,0,1,146,209.83Zm-62.85-38,13.1,6.27a1.28,1.28,0,0,1,.6,1.71,1.32,1.32,0,0,1-.58.59l-12.7,6.4a1.31,1.31,0,0,1-1.19,0l-13.09-6.26a1.28,1.28,0,0,1-.61-1.72,1.3,1.3,0,0,1,.58-.58L82,171.84A1.31,1.31,0,0,1,83.15,171.84Zm.1,23.81,31-15.64a1.27,1.27,0,0,0,0-2.29L83.49,163a1.31,1.31,0,0,0-1.19,0l-31,15.62a1.28,1.28,0,0,0-.56,1.73,1.21,1.21,0,0,0,.59.57l30.73,14.71a1.36,1.36,0,0,0,1.18,0Zm26,11.26a15.85,15.85,0,0,1-7.83,12.93c-4.31,2.18-7.81-.05-7.81-5a15.81,15.81,0,0,1,7.83-12.94c4.31-2.18,7.81.07,7.81,5Zm9.14,13.42V185.56a1.3,1.3,0,0,0-1.33-1.29,1.27,1.27,0,0,0-.6.15L85.24,200.27a1.26,1.26,0,0,0-.71,1.14v34.77a1.32,1.32,0,0,0,1.93,1.14l31.27-15.85A1.28,1.28,0,0,0,118.43,220.33Zm-48.34,3L56,216.67A1.28,1.28,0,0,1,55.4,215l.09-.16,7-10.28a1.33,1.33,0,0,1,1.84-.35,1.24,1.24,0,0,1,.48.58l7,17a1.29,1.29,0,0,1-.67,1.7,1.33,1.33,0,0,1-1.15-.05Z"/></svg>