<svg id="Layer_1" data-name="Layer 1" xmlns="http://www.w3.org/2000/svg" viewBox="0 0 400 400"><defs><style>.cls-1{fill:#fff;}.cls-2{fill:#ed1a3b;}.cls-3{fill:#f79f1f;}.cls-4{fill:#ffc312;}</style></defs><rect class="cls-1" x="-1395.34" y="-106.79" width="2777.89" height="4120.23"/><g id="Layer_2" data-name="Layer 2"><g id="Layer_1-2" data-name="Layer 1-2"><path class="cls-2" d="M74,177l-20.46,0a4.27,4.27,0,0,0-4.26,4.27,4.5,4.5,0,0,0,.25,1.41l11,19.05a6.42,6.42,0,0,0,5,2.4h9.33a4.35,4.35,0,0,1,3.78,6.52L74,218.69a6.39,6.39,0,0,0-.4,5.54l11.07,19.09a4.24,4.24,0,0,0,6.93-.65l10.17-17.74Z"/><polygon class="cls-3" points="115.6 200.87 101.71 176.9 73.95 176.94 101.76 224.94 115.6 200.87"/><path class="cls-4" d="M122,176.87l-20.29,0,13.89,24,10.13-17.61a4.26,4.26,0,0,0-3.73-6.39Z"/><path class="cls-2" d="M177.83,186.92a2,2,0,0,1-.24.9L157.4,228.57a1.34,1.34,0,0,1-1.22,1c-.44,0-.84-.32-1.21-1l-20.06-40.75a1.9,1.9,0,0,1-.25-.9c0-.81.53-1.22,1.58-1.22h6.6A2.2,2.2,0,0,1,145,187l11.15,23.15L167.4,187a2.2,2.2,0,0,1,2.19-1.34h6.67C177.31,185.7,177.83,186.11,177.83,186.92Z"/><path class="cls-2" d="M192.45,242.46h-6.21c-1.05,0-1.58-.43-1.58-1.28a2.43,2.43,0,0,1,.18-.84l4.86-11.59-13.32-29.87a2.3,2.3,0,0,1-.18-.9,1.09,1.09,0,0,1,.39-.88,1.66,1.66,0,0,1,1.13-.34h6.68a2,2,0,0,1,2,1.37L194.33,218l7.21-19.76a2,2,0,0,1,2.13-1.45h6.6a1.78,1.78,0,0,1,1.22.36,1.23,1.23,0,0,1,.42,1,2.39,2.39,0,0,1-.18.79l-17.22,42.2A2,2,0,0,1,192.45,242.46Z"/><path class="cls-2" d="M239.26,229.48a1.78,1.78,0,0,1-.49-1.33v-1.52a9.47,9.47,0,0,1-4.06,2.83,15.41,15.41,0,0,1-6.07,1.21,17,17,0,0,1-8.91-2.26,14.83,14.83,0,0,1-5.82-6.33,20.33,20.33,0,0,1,0-17.65,15.58,15.58,0,0,1,5.79-6.23,16.72,16.72,0,0,1,8.91-2.31,15.08,15.08,0,0,1,6,1.13,10.16,10.16,0,0,1,4.12,3v-1.63a1.71,1.71,0,0,1,1.59-1.8h5.56a1.69,1.69,0,0,1,1.82,1.56,1,1,0,0,1,0,.25v29.71a1.7,1.7,0,0,1-1.56,1.82h-5.59A1.81,1.81,0,0,1,239.26,229.48Zm-2.64-23a9.79,9.79,0,0,0-13.31,0,9.49,9.49,0,0,0-2.49,6.85,9.31,9.31,0,0,0,2.55,6.78,8.8,8.8,0,0,0,6.61,2.64,8.93,8.93,0,0,0,6.7-2.52,10.77,10.77,0,0,0-.06-13.75Z"/><path class="cls-2" d="M260.28,197.1a1.84,1.84,0,0,1,.48,1.34V200a9.47,9.47,0,0,1,4.07-2.82,15.34,15.34,0,0,1,6.05-1.24,17,17,0,0,1,8.86,2.26,15.3,15.3,0,0,1,5.88,6.29,19.54,19.54,0,0,1,2,8.85,19.29,19.29,0,0,1-2,8.86,15.33,15.33,0,0,1-5.76,6.24,17.21,17.21,0,0,1-9,2.3,14.89,14.89,0,0,1-6-1.13,10.07,10.07,0,0,1-4.12-3V238.9a1.7,1.7,0,0,1-1.56,1.82h-5.59a1.69,1.69,0,0,1-1.82-1.55,2.44,2.44,0,0,1,0-.27V198.44a1.7,1.7,0,0,1,1.57-1.81h5.59A1.83,1.83,0,0,1,260.28,197.1Zm2.63,23a8.8,8.8,0,0,0,6.64,2.61,8.93,8.93,0,0,0,6.68-2.61,9.53,9.53,0,0,0,2.48-6.85,9.29,9.29,0,0,0-2.55-6.77,8.8,8.8,0,0,0-6.61-2.64,8.94,8.94,0,0,0-6.7,2.52,10.69,10.69,0,0,0,.06,13.74Z"/><path class="cls-2" d="M318.5,229.48a1.78,1.78,0,0,1-.49-1.33v-1.52a9.51,9.51,0,0,1-4.07,2.83,15.36,15.36,0,0,1-6.06,1.21,17,17,0,0,1-8.91-2.26,14.76,14.76,0,0,1-5.84-6.33,20.22,20.22,0,0,1,0-17.64A15.54,15.54,0,0,1,299,198.2a16.7,16.7,0,0,1,8.91-2.31,15.11,15.11,0,0,1,6,1.13,10.23,10.23,0,0,1,4.12,3v-1.63a1.69,1.69,0,0,1,1.59-1.8h5.58a1.69,1.69,0,0,1,1.84,1.53,1.31,1.31,0,0,1,0,.28v29.71a1.7,1.7,0,0,1-1.56,1.82h-5.59A1.81,1.81,0,0,1,318.5,229.48Zm-2.64-23a9.79,9.79,0,0,0-13.31,0,9.49,9.49,0,0,0-2.49,6.85,9.31,9.31,0,0,0,2.55,6.78,8.8,8.8,0,0,0,6.61,2.64,8.93,8.93,0,0,0,6.7-2.52,10.77,10.77,0,0,0-.06-13.75Z"/><path class="cls-2" d="M351,196.5a1.91,1.91,0,0,1,.48,1.39v5.16c0,1.09-.61,1.69-1.82,1.81a11.57,11.57,0,0,0-3.88.95,10,10,0,0,0-3.51,2.51q-2.19,2.37-2.19,6.94v12.89A1.7,1.7,0,0,1,338.5,230h-5.65a1.71,1.71,0,0,1-1.83-1.56v-30a1.69,1.69,0,0,1,1.57-1.81h5.65a1.68,1.68,0,0,1,1.82,1.55,1.13,1.13,0,0,1,0,.26v2.61a11.63,11.63,0,0,1,4.3-3.51,15.26,15.26,0,0,1,5.28-1.48A1.66,1.66,0,0,1,351,196.5Z"/></g></g></svg>